<?xml version="1.0" encoding="UTF-8"?>
<svg width="120" height="120" xmlns="http://www.w3.org/2000/svg">
  <!-- Fondo oscuro -->
  <rect width="120" height="120" fill="#1a1a1a" rx="12"/>
  
  <!-- Logo O centrado y escalado -->
  <g transform="translate(28, 28) scale(2)">
    <path fill="#b8983c" d="M16,24.18c-3.5,0-6.31-.31-8.44-.93-2.13-.62-3.68-1.53-4.65-2.74-.97-1.21-1.46-2.71-1.46-4.51s.48-3.3,1.46-4.51c.97-1.21,2.52-2.12,4.65-2.74,2.13-.62,4.95-.93,8.44-.93s6.31.31,8.44.93c2.13.62,3.68,1.53,4.65,2.74.97,1.21,1.46,2.71,1.46,4.51s-.49,3.3-1.46,4.51c-.97,1.21-2.52,2.13-4.65,2.74-2.13.62-4.95.93-8.44.93ZM16,19.61c1.65,0,3.08-.1,4.28-.3,1.2-.2,2.13-.56,2.79-1.08.66-.52.99-1.26.99-2.23s-.33-1.7-.99-2.22c-.66-.52-1.59-.88-2.79-1.08-1.2-.2-2.63-.3-4.28-.3s-3.1.1-4.34.3c-1.24.2-2.21.56-2.91,1.08-.7.52-1.05,1.26-1.05,2.22s.35,1.7,1.05,2.23,1.67.88,2.91,1.08c1.24.2,2.69.3,4.34.3Z"/>
  </g>
</svg>